<svg xmlns="http://www.w3.org/2000/svg" xmlns:xlink="http://www.w3.org/1999/xlink" width="1080" zoomAndPan="magnify" viewBox="0 0 810 809.999993" height="1080" preserveAspectRatio="xMidYMid meet" version="1.0"><defs><clipPath id="cba9695f99"><path d="M 342 234.867188 L 468 234.867188 L 468 359 L 342 359 Z M 342 234.867188 " clip-rule="nonzero"/></clipPath><clipPath id="b4a879504a"><path d="M 184.984375 311.019531 L 625.011719 311.019531 L 625.011719 575.132812 L 184.984375 575.132812 Z M 184.984375 311.019531 " clip-rule="nonzero"/></clipPath></defs><g clip-path="url(#cba9695f99)"><path fill="#ff3131" d="M 467.855469 294.691406 C 467.855469 261.699219 441.019531 234.867188 408.03125 234.867188 C 379.503906 234.867188 356.828125 249.074219 347.179688 270.882812 L 376.890625 270.882812 C 378.996094 270.882812 380.703125 272.59375 380.703125 274.699219 C 380.703125 276.804688 378.996094 278.515625 376.890625 278.515625 L 344.445312 278.515625 C 342.949219 283.8125 342.140625 289.457031 342.140625 295.378906 L 342.140625 299.050781 L 375.34375 299.050781 C 377.453125 299.050781 379.160156 300.761719 379.160156 302.867188 C 379.160156 304.972656 377.453125 306.683594 375.34375 306.683594 L 342.140625 306.683594 L 342.140625 323.976562 L 375.34375 323.976562 C 377.453125 323.976562 379.160156 325.683594 379.160156 327.792969 C 379.160156 329.898438 377.453125 331.605469 375.34375 331.605469 L 342.140625 331.605469 L 342.140625 358.886719 L 467.855469 358.886719 L 467.855469 294.691406 " fill-opacity="1" fill-rule="nonzero"/></g><path fill="#ff3131" d="M 467.855469 366.519531 L 342.140625 366.519531 L 342.140625 375.945312 L 467.855469 375.945312 L 467.855469 366.519531 " fill-opacity="1" fill-rule="nonzero"/><path fill="#ff3131" d="M 412.933594 458.742188 C 435.410156 458.742188 453.699219 440.449219 453.699219 417.972656 L 453.699219 396.253906 C 453.699219 394.148438 455.40625 392.4375 457.511719 392.4375 C 459.621094 392.4375 461.328125 394.148438 461.328125 396.253906 L 461.328125 417.972656 C 461.328125 444.660156 439.617188 466.371094 412.933594 466.371094 C 410.824219 466.371094 409.117188 464.660156 409.117188 462.554688 C 409.117188 460.449219 410.824219 458.742188 412.933594 458.742188 Z M 397.066406 472.894531 L 412.933594 472.894531 C 443.21875 472.894531 467.855469 448.257812 467.855469 417.972656 L 467.855469 383.574219 L 342.140625 383.574219 L 342.140625 417.972656 C 342.140625 448.257812 366.777344 472.894531 397.066406 472.894531 " fill-opacity="1" fill-rule="nonzero"/><g clip-path="url(#b4a879504a)"><path fill="#ff3131" d="M 621.195312 363.15625 L 600.6875 363.15625 C 598.863281 363.15625 597.296875 364.441406 596.945312 366.230469 L 589.585938 403.257812 L 575.152344 315.335938 C 574.671875 312.398438 572.546875 311.0625 570.65625 311.042969 C 570.640625 311.042969 570.625 311.042969 570.613281 311.042969 C 568.738281 311.042969 566.625 312.328125 566.089844 315.207031 L 552.15625 390.65625 L 542.414062 347.054688 C 541.917969 344.679688 540.199219 343.105469 538.042969 343.042969 C 536.316406 342.972656 534.21875 344.113281 533.582031 346.496094 L 523.417969 376.96875 C 523.394531 377.050781 523.371094 377.125 523.347656 377.191406 L 490.429688 377.035156 C 490.425781 377.035156 490.417969 377.035156 490.410156 377.035156 C 490.148438 377.035156 489.894531 377.0625 489.644531 377.109375 C 489.527344 377.136719 489.414062 377.183594 489.300781 377.21875 C 489.175781 377.257812 489.046875 377.285156 488.929688 377.332031 C 488.820312 377.378906 488.726562 377.445312 488.621094 377.5 C 488.507812 377.5625 488.390625 377.613281 488.28125 377.683594 C 488.179688 377.753906 488.097656 377.835938 488.003906 377.914062 C 487.910156 377.992188 487.804688 378.0625 487.71875 378.148438 C 487.628906 378.238281 487.5625 378.339844 487.480469 378.4375 C 487.402344 378.527344 487.320312 378.613281 487.253906 378.710938 C 487.183594 378.8125 487.132812 378.929688 487.074219 379.035156 C 487.015625 379.144531 486.949219 379.246094 486.898438 379.359375 C 486.851562 379.472656 486.824219 379.597656 486.789062 379.71875 C 486.75 379.835938 486.703125 379.949219 486.679688 380.074219 C 486.652344 380.195312 486.652344 380.320312 486.636719 380.445312 C 486.625 380.574219 486.597656 380.699219 486.597656 380.832031 L 486.597656 419.074219 C 486.597656 458.691406 454.363281 490.925781 414.742188 490.925781 L 395.25 490.925781 C 355.628906 490.925781 323.398438 458.691406 323.398438 419.074219 L 323.398438 380.832031 C 323.398438 380.699219 323.371094 380.574219 323.359375 380.445312 C 323.34375 380.320312 323.34375 380.195312 323.320312 380.074219 C 323.292969 379.949219 323.246094 379.835938 323.207031 379.71875 C 323.171875 379.597656 323.144531 379.472656 323.09375 379.359375 C 323.046875 379.246094 322.980469 379.144531 322.921875 379.035156 C 322.863281 378.929688 322.8125 378.8125 322.742188 378.710938 C 322.675781 378.613281 322.589844 378.527344 322.515625 378.4375 C 322.4375 378.339844 322.367188 378.238281 322.277344 378.148438 C 322.191406 378.0625 322.085938 377.992188 321.992188 377.914062 C 321.898438 377.835938 321.8125 377.753906 321.714844 377.683594 C 321.605469 377.613281 321.488281 377.5625 321.371094 377.5 C 321.269531 377.445312 321.175781 377.378906 321.066406 377.332031 C 320.949219 377.285156 320.820312 377.257812 320.695312 377.21875 C 320.582031 377.183594 320.46875 377.136719 320.351562 377.109375 C 320.101562 377.0625 319.847656 377.035156 319.582031 377.035156 C 319.578125 377.035156 319.570312 377.035156 319.566406 377.035156 L 286.652344 377.191406 C 286.609375 377.074219 286.566406 376.929688 286.515625 376.757812 L 276.476562 346.707031 C 275.773438 344.109375 273.652344 343.003906 271.949219 343.042969 C 269.789062 343.109375 268.074219 344.683594 267.589844 347.007812 L 257.835938 390.660156 L 243.902344 315.210938 C 243.371094 312.304688 241.207031 311.144531 239.34375 311.042969 C 237.449219 311.0625 235.324219 312.394531 234.839844 315.335938 L 220.410156 403.253906 L 213.050781 366.230469 C 212.695312 364.441406 211.128906 363.15625 209.308594 363.15625 L 188.796875 363.15625 C 186.691406 363.15625 184.984375 364.867188 184.984375 366.972656 C 184.984375 369.078125 186.691406 370.789062 188.796875 370.789062 L 206.179688 370.789062 L 215.574219 418.082031 C 216.285156 421.644531 218.730469 422.902344 220.644531 422.902344 C 220.667969 422.902344 220.691406 422.902344 220.714844 422.902344 C 222.660156 422.871094 225.148438 421.515625 225.757812 417.804688 L 239.558594 333.703125 L 252.519531 403.890625 C 253.1875 407.496094 255.648438 408.800781 257.550781 408.824219 C 259.425781 408.824219 261.914062 407.621094 262.644531 404.136719 L 272.65625 359.328125 L 279.214844 378.960938 C 280.195312 382.582031 282.605469 384.828125 285.527344 384.828125 L 315.765625 384.683594 L 315.765625 419.074219 C 315.765625 460.585938 347.765625 494.746094 388.386719 498.242188 L 388.386719 567.503906 L 343.367188 567.503906 C 341.261719 567.503906 339.550781 569.210938 339.550781 571.316406 C 339.550781 573.425781 341.261719 575.132812 343.367188 575.132812 L 471.671875 575.132812 C 473.777344 575.132812 475.484375 573.425781 475.484375 571.316406 C 475.484375 569.210938 473.777344 567.503906 471.671875 567.503906 L 421.609375 567.503906 L 421.609375 498.242188 C 462.230469 494.746094 494.226562 460.585938 494.226562 419.074219 L 494.226562 384.683594 L 524.484375 384.828125 C 527.386719 384.828125 529.804688 382.582031 530.71875 379.171875 L 537.335938 359.328125 L 547.339844 404.085938 C 548.070312 407.585938 550.507812 408.824219 552.386719 408.824219 C 552.40625 408.824219 552.421875 408.824219 552.4375 408.824219 C 554.34375 408.800781 556.808594 407.496094 557.476562 403.890625 L 570.433594 333.703125 L 584.238281 417.804688 C 584.847656 421.515625 587.332031 422.871094 589.28125 422.902344 C 589.304688 422.902344 589.328125 422.902344 589.351562 422.902344 C 591.265625 422.902344 593.710938 421.644531 594.417969 418.078125 L 603.816406 370.789062 L 621.195312 370.789062 C 623.304688 370.789062 625.011719 369.078125 625.011719 366.972656 C 625.011719 364.867188 623.304688 363.15625 621.195312 363.15625 " fill-opacity="1" fill-rule="nonzero"/></g><path stroke-linecap="butt" transform="matrix(0.75, 0, 0, 0.75, 303.076512, 806.999979)" fill="none" stroke-linejoin="miter" d="M 0.00215033 2.000028 L 345.601126 2.000028 " stroke="#000000" stroke-width="4" stroke-opacity="1" stroke-miterlimit="4"/></svg>